<?xml version="1.0" encoding="utf-8"?>
<!-- Generated by IcoMoon.io -->
<!DOCTYPE svg PUBLIC "-//W3C//DTD SVG 1.1//EN" "http://www.w3.org/Graphics/SVG/1.1/DTD/svg11.dtd">
<svg version="1.1" xmlns="http://www.w3.org/2000/svg" xmlns:xlink="http://www.w3.org/1999/xlink" width="752" height="32" viewBox="0 0 752 32">
<svg id="icon-instagram" width="31" height="32" viewBox="0 0 31 32" x="0" y="0">
<path fill="#fff" d="M27.64 7.647c0 0.007 0 0.015 0 0.023 0 1.094-0.878 1.983-1.968 2l-1.876 0c-1.098-0.011-1.983-0.904-1.983-2.003 0-0.007 0-0.014 0-0.022v-1.914c-0-0.006-0-0.013-0-0.020 0-1.099 0.885-1.992 1.982-2.003h1.875c1.091 0.018 1.97 0.906 1.97 2 0 0.008-0 0.016-0 0.025v1.914zM27.64 26.255c-0.052 1.125-0.973 2.017-2.105 2.024h-19.736c-1.152-0-2.096-0.888-2.186-2.016l-0.001-10.099c0.091-1.136 1.035-2.024 2.187-2.024h1.114c0.012-0 0.026-0.001 0.041-0.001 0.062 0 0.124 0.005 0.183 0.015 0.387 0.061 0.688 0.385 0.713 0.784 0 0.013 0.001 0.024 0.001 0.036 0 0.060-0.005 0.119-0.015 0.176 0.035 0.034 0.067 0.078 0.094 0.126-0.025 0.303 0.056 0.588 0.056 0.887v0c-0.001 0.051-0.002 0.112-0.002 0.172 0 4.275 3.395 7.756 7.636 7.895l0.067 0c4.362-0.051 7.878-3.599 7.878-7.968 0-0.035-0-0.070-0.001-0.105 0-0.293-0.027-0.579-0.054-0.878-0.009-0.034-0.014-0.073-0.014-0.113 0-0.008 0-0.016 0.001-0.024-0.009-0.050-0.014-0.109-0.014-0.169 0-0.012 0-0.024 0.001-0.036 0.031-0.398 0.329-0.719 0.715-0.785 0.058-0.010 0.119-0.015 0.182-0.015 0.014 0 0.028 0 0.043 0.001l1.112-0c1.132 0.006 2.053 0.899 2.105 2.019l0 10.096zM11.722 16.163s0.312-4.034 3.952-4.034 3.939 4.034 3.939 4.034c0.001 0.031 0.001 0.067 0.001 0.104 0 2.18-1.767 3.947-3.947 3.947s-3.947-1.767-3.947-3.947c0-0.036 0.001-0.073 0.001-0.109zM27.328 0h-23.402c-2.189 0.027-3.953 1.807-3.953 4 0 0.012 0 0.024 0 0.036v23.93c-0 0.010-0 0.022-0 0.034 0 2.192 1.764 3.973 3.95 4l23.405 0c2.188-0.022 3.953-1.801 3.953-3.992 0-0.015-0-0.030-0-0.045l0-23.93c0-0.013 0-0.027 0-0.042 0-2.191-1.765-3.97-3.951-3.992z"></path>
</svg>
<svg id="icon-facebook" width="17" height="32" viewBox="0 0 17 32" x="48" y="0">
<path fill="#fff" d="M16.191 0.012l-4.030-0.012c-4.533 0-7.467 3.093-7.467 7.87v3.639h-4.058c-0.351 0.003-0.634 0.288-0.634 0.639 0 0.005 0 0.009 0 0.014v5.262c-0 0.002-0 0.004-0 0.006 0 0.353 0.282 0.639 0.633 0.646h4.059v13.274c-0 0.002-0 0.004-0 0.006 0 0.353 0.282 0.639 0.633 0.646h5.294c0.352-0.007 0.635-0.294 0.635-0.647 0-0.002 0-0.003-0-0.005v-13.274h4.741c0.352-0.007 0.635-0.294 0.635-0.647 0-0.002 0-0.003-0-0.005v-5.262c0-0.002 0-0.005 0-0.008 0-0.177-0.071-0.337-0.185-0.454-0.115-0.116-0.273-0.188-0.449-0.19h-4.741v-3.081c0-1.481 0.343-2.228 2.216-2.228h2.719c0.352-0.007 0.634-0.293 0.634-0.646 0-0.002 0-0.004-0-0.006v-4.883c0-0.004 0-0.009 0-0.014 0-0.352-0.285-0.637-0.637-0.638z"></path>
</svg>
<svg id="icon-twiter" width="39" height="32" viewBox="0 0 39 32" x="96" y="0">
<path fill="#fff" d="M38.189 0.596c-1.474 0.883-3.188 1.559-5.013 1.931-1.579-1.55-3.667-2.527-5.983-2.527-4.451 0-8.060 3.608-8.060 8.060 0 0.005 0 0.009 0 0.014 0 0.003 0 0.006 0 0.010 0 0.651 0.076 1.285 0.219 1.892-6.726-0.402-12.631-3.599-16.583-8.45-0.718 1.122-1.122 2.521-1.122 4.015 0 2.788 1.409 5.247 3.554 6.704-1.318-0.026-2.569-0.399-3.659-1.021l0.039 0.122c0 0.002 0 0.005 0 0.008 0 3.89 2.748 7.139 6.408 7.91-0.582 0.194-1.311 0.3-2.065 0.3-0.002 0-0.003 0-0.005 0-0.538-0.002-1.061-0.060-1.566-0.169 1.1 3.244 4.058 5.555 7.566 5.623-2.711 2.158-6.192 3.462-9.978 3.462-0.006 0-0.013 0-0.019 0-0.679-0.002-1.347-0.044-2.003-0.124 3.562 2.288 7.827 3.644 12.409 3.644 0.008 0 0.016 0 0.024 0 14.818 0 22.921-12.305 22.921-22.996l-0.026-1.047c1.59-1.149 2.927-2.533 3.99-4.117-1.309 0.554-2.871 1.004-4.507 1.214 1.581-1.007 2.832-2.557 3.444-4.399z"></path>
</svg>
</svg>
